<svg width="30" height="32" viewBox="0 0 30 32" fill="none" xmlns="http://www.w3.org/2000/svg">
<path d="M13.8319 25.2011C13.8319 25.5584 13.9066 25.8757 14.0559 26.1531C14.2053 26.4304 14.4106 26.6491 14.6719 26.8091C14.9333 26.9691 15.2373 27.0491 15.5839 27.0491C15.9306 27.0491 16.2346 26.9691 16.4959 26.8091C16.7573 26.6491 16.9599 26.4304 17.1039 26.1531C17.2533 25.8757 17.3279 25.5584 17.3279 25.2011C17.3279 24.8437 17.2559 24.5264 17.1119 24.2491C16.9679 23.9717 16.7653 23.7531 16.5039 23.5931C16.2426 23.4331 15.9359 23.3531 15.5839 23.3531C15.2373 23.3531 14.9333 23.4331 14.6719 23.5931C14.4106 23.7531 14.2053 23.9717 14.0559 24.2491C13.9066 24.5264 13.8319 24.8437 13.8319 25.2011Z" fill="#374146"/>
<path d="M8.23538 26.9611V23.4411H8.93138C9.17672 23.4411 9.40872 23.4757 9.62738 23.5451C9.84605 23.6091 10.038 23.7131 10.2034 23.8571C10.3687 24.0011 10.4967 24.1851 10.5874 24.4091C10.6834 24.6277 10.7314 24.8917 10.7314 25.2011C10.7314 25.5104 10.6834 25.7771 10.5874 26.0011C10.4967 26.2197 10.3687 26.4011 10.2034 26.5451C10.038 26.6891 9.84605 26.7957 9.62738 26.8651C9.40872 26.9291 9.17672 26.9611 8.93138 26.9611H8.23538Z" fill="#374146"/>
<path fill-rule="evenodd" clip-rule="evenodd" d="M22 0L30 8V31C30 31.5523 29.5523 32 29 32H1C0.447716 32 0 31.5523 0 31V1.23077C0 0.551035 0.559644 0 1.25 0H22ZM20 2H2V18H28V10H21.4286C20.6396 10 20 9.36044 20 8.57143V2ZM12.6239 25.2011C12.6239 24.7744 12.6986 24.3851 12.8479 24.0331C12.9973 23.6757 13.2053 23.3664 13.4719 23.1051C13.7386 22.8437 14.0506 22.6437 14.4079 22.5051C14.7706 22.3611 15.1626 22.2891 15.5839 22.2891C16.0106 22.2891 16.4026 22.3611 16.7599 22.5051C17.1173 22.6437 17.4293 22.8437 17.6959 23.1051C17.9679 23.3664 18.1759 23.6757 18.3199 24.0331C18.4693 24.3851 18.5439 24.7744 18.5439 25.2011C18.5439 25.6224 18.4693 26.0144 18.3199 26.3771C18.1759 26.7344 17.9706 27.0464 17.7039 27.3131C17.4426 27.5797 17.1306 27.7877 16.7679 27.9371C16.4106 28.0811 16.0159 28.1531 15.5839 28.1531C15.1519 28.1531 14.7546 28.0811 14.3919 27.9371C14.0346 27.7877 13.7226 27.5797 13.4559 27.3131C13.1893 27.0464 12.9839 26.7344 12.8399 26.3771C12.6959 26.0144 12.6239 25.6224 12.6239 25.2011ZM7.06738 22.4011H8.97138C9.55805 22.4011 10.07 22.5157 10.5074 22.7451C10.95 22.9744 11.294 23.2997 11.5394 23.7211C11.7847 24.1371 11.9074 24.6304 11.9074 25.2011C11.9074 25.7717 11.7847 26.2677 11.5394 26.6891C11.294 27.1051 10.95 27.4277 10.5074 27.6571C10.07 27.8864 9.55805 28.0011 8.97138 28.0011H7.06738V22.4011ZM20.7463 26.1691C20.581 25.8917 20.4983 25.5691 20.4983 25.2011C20.4983 24.8277 20.581 24.5051 20.7463 24.2331C20.917 23.9611 21.1383 23.7531 21.4103 23.6091C21.6823 23.4597 21.9783 23.3851 22.2983 23.3851C22.565 23.3851 22.8023 23.4197 23.0103 23.4891C23.2183 23.5584 23.405 23.6517 23.5703 23.7691C23.741 23.8864 23.8877 24.0144 24.0103 24.1531V22.8651C23.781 22.6837 23.5303 22.5424 23.2583 22.4411C22.9917 22.3397 22.653 22.2891 22.2423 22.2891C21.8157 22.2891 21.4183 22.3584 21.0503 22.4971C20.6877 22.6357 20.3703 22.8357 20.0983 23.0971C19.8317 23.3584 19.6237 23.6677 19.4743 24.0251C19.3303 24.3771 19.2583 24.7691 19.2583 25.2011C19.2583 25.6331 19.3303 26.0277 19.4743 26.3851C19.6237 26.7371 19.8317 27.0437 20.0983 27.3051C20.3703 27.5664 20.6877 27.7664 21.0503 27.9051C21.4183 28.0437 21.8157 28.1131 22.2423 28.1131C22.653 28.1131 22.9917 28.0624 23.2583 27.9611C23.5303 27.8597 23.781 27.7184 24.0103 27.5371V26.2491C23.8877 26.3877 23.741 26.5157 23.5703 26.6331C23.405 26.7504 23.2183 26.8437 23.0103 26.9131C22.8023 26.9824 22.565 27.0171 22.2983 27.0171C21.9783 27.0171 21.6823 26.9451 21.4103 26.8011C21.1383 26.6517 20.917 26.4411 20.7463 26.1691Z" fill="#374146"/>
</svg>
