<svg width="30" height="32" viewBox="0 0 30 32" fill="none" xmlns="http://www.w3.org/2000/svg">
<path d="M5.14084 23.44V26.96H5.83684C6.08218 26.96 6.31418 26.928 6.53284 26.864C6.75151 26.7947 6.94351 26.688 7.10884 26.544C7.27418 26.4 7.40218 26.2187 7.49284 26C7.58884 25.776 7.63684 25.5093 7.63684 25.2C7.63684 24.8907 7.58884 24.6267 7.49284 24.408C7.40218 24.184 7.27418 24 7.10884 23.856C6.94351 23.712 6.75151 23.608 6.53284 23.544C6.31418 23.4747 6.08218 23.44 5.83684 23.44H5.14084Z" fill="#374146"/>
<path d="M10.9614 26.152C10.8121 25.8747 10.7374 25.5573 10.7374 25.2C10.7374 24.8427 10.8121 24.5253 10.9614 24.248C11.1107 23.9707 11.3161 23.752 11.5774 23.592C11.8387 23.432 12.1427 23.352 12.4894 23.352C12.8414 23.352 13.1481 23.432 13.4094 23.592C13.6707 23.752 13.8734 23.9707 14.0174 24.248C14.1614 24.5253 14.2334 24.8427 14.2334 25.2C14.2334 25.5573 14.1587 25.8747 14.0094 26.152C13.8654 26.4293 13.6627 26.648 13.4014 26.808C13.1401 26.968 12.8361 27.048 12.4894 27.048C12.1427 27.048 11.8387 26.968 11.5774 26.808C11.3161 26.648 11.1107 26.4293 10.9614 26.152Z" fill="#374146"/>
<path fill-rule="evenodd" clip-rule="evenodd" d="M22 0L30 8V31C30 31.5523 29.5523 32 29 32H1C0.447716 32 0 31.5523 0 31V1.23077C0 0.551035 0.559644 0 1.25 0H22ZM20 2H2V18H28V10H21.4286C20.6396 10 20 9.36044 20 8.57143V2ZM3.97284 22.4V28H5.87684C6.46351 28 6.97551 27.8853 7.41284 27.656C7.85551 27.4267 8.19951 27.104 8.44484 26.688C8.69018 26.2667 8.81284 25.7707 8.81284 25.2C8.81284 24.6293 8.69018 24.136 8.44484 23.72C8.19951 23.2987 7.85551 22.9733 7.41284 22.744C6.97551 22.5147 6.46351 22.4 5.87684 22.4H3.97284ZM9.75341 24.032C9.60407 24.384 9.52941 24.7733 9.52941 25.2C9.52941 25.6213 9.60141 26.0133 9.74541 26.376C9.88941 26.7333 10.0947 27.0453 10.3614 27.312C10.6281 27.5787 10.9401 27.7867 11.2974 27.936C11.6601 28.08 12.0574 28.152 12.4894 28.152C12.9214 28.152 13.3161 28.08 13.6734 27.936C14.0361 27.7867 14.3481 27.5787 14.6094 27.312C14.8761 27.0453 15.0814 26.7333 15.2254 26.376C15.3747 26.0133 15.4494 25.6213 15.4494 25.2C15.4494 24.7733 15.3747 24.384 15.2254 24.032C15.0814 23.6747 14.8734 23.3653 14.6014 23.104C14.3347 22.8427 14.0227 22.6427 13.6654 22.504C13.3081 22.36 12.9161 22.288 12.4894 22.288C12.0681 22.288 11.6761 22.36 11.3134 22.504C10.9561 22.6427 10.6441 22.8427 10.3774 23.104C10.1107 23.3653 9.90274 23.6747 9.75341 24.032ZM17.6518 26.168C17.4864 25.8907 17.4038 25.568 17.4038 25.2C17.4038 24.8267 17.4864 24.504 17.6518 24.232C17.8224 23.96 18.0438 23.752 18.3158 23.608C18.5878 23.4587 18.8838 23.384 19.2038 23.384C19.4704 23.384 19.7078 23.4187 19.9158 23.488C20.1238 23.5573 20.3104 23.6507 20.4758 23.768C20.6464 23.8853 20.7931 24.0133 20.9158 24.152V22.864C20.6864 22.6827 20.4358 22.5413 20.1638 22.44C19.8971 22.3387 19.5584 22.288 19.1478 22.288C18.7211 22.288 18.3238 22.3573 17.9558 22.496C17.5931 22.6347 17.2758 22.8347 17.0038 23.096C16.7371 23.3573 16.5291 23.6667 16.3798 24.024C16.2358 24.376 16.1638 24.768 16.1638 25.2C16.1638 25.632 16.2358 26.0267 16.3798 26.384C16.5291 26.736 16.7371 27.0427 17.0038 27.304C17.2758 27.5653 17.5931 27.7653 17.9558 27.904C18.3238 28.0427 18.7211 28.112 19.1478 28.112C19.5584 28.112 19.8971 28.0613 20.1638 27.96C20.4358 27.8587 20.6864 27.7173 20.9158 27.536V26.248C20.7931 26.3867 20.6464 26.5147 20.4758 26.632C20.3104 26.7493 20.1238 26.8427 19.9158 26.912C19.7078 26.9813 19.4704 27.016 19.2038 27.016C18.8838 27.016 18.5878 26.944 18.3158 26.8C18.0438 26.6507 17.8224 26.44 17.6518 26.168ZM26.4709 22.4H25.0709L24.0869 24.16L23.1269 22.4H21.7269L23.4149 25.112L21.5269 28H22.9269L24.0789 25.992L25.1909 28H26.5909L24.7509 25.112L26.4709 22.4Z" fill="#374146"/>
</svg>
