<svg width="30" height="32" viewBox="0 0 30 32" fill="none" xmlns="http://www.w3.org/2000/svg">
<path d="M12.3575 23.368V25H13.0215C13.3255 25 13.5655 24.9307 13.7415 24.792C13.9175 24.6533 14.0055 24.4507 14.0055 24.184C14.0055 23.912 13.9175 23.7093 13.7415 23.576C13.5655 23.4373 13.3255 23.368 13.0215 23.368H12.3575Z" fill="#374146"/>
<path fill-rule="evenodd" clip-rule="evenodd" d="M22 0L30 8V31C30 31.5523 29.5523 32 29 32H1C0.447716 32 0 31.5523 0 31V1.23077C0 0.551035 0.559644 0 1.25 0H22ZM20 2H2V18H28V10H21.4286C20.6396 10 20 9.36044 20 8.57143V2ZM7.76141 28.8C7.64941 28.752 7.55607 28.688 7.48141 28.608L6.86541 29.432C6.95074 29.496 7.06274 29.56 7.20141 29.624C7.33474 29.688 7.48941 29.744 7.66541 29.792C7.83607 29.84 8.01474 29.864 8.20141 29.864C8.43074 29.864 8.64407 29.8373 8.84141 29.784C9.04407 29.7307 9.22007 29.6453 9.36941 29.528C9.52407 29.416 9.64141 29.2693 9.72141 29.088C9.80674 28.912 9.84941 28.6987 9.84941 28.448V22.4H8.64941V28.208C8.64941 28.4533 8.59074 28.6267 8.47341 28.728C8.36141 28.8293 8.24407 28.88 8.12141 28.88C7.99341 28.88 7.87341 28.8533 7.76141 28.8ZM11.2135 22.4V28H12.3575V25.968H13.0215C13.4641 25.968 13.8401 25.896 14.1495 25.752C14.4641 25.608 14.7041 25.4027 14.8695 25.136C15.0348 24.864 15.1175 24.5467 15.1175 24.184C15.1175 23.816 15.0348 23.4987 14.8695 23.232C14.7041 22.9653 14.4641 22.76 14.1495 22.616C13.8401 22.472 13.4641 22.4 13.0215 22.4H11.2135ZM18.8725 25.008V25.92H20.4805C20.4325 26.0907 20.3632 26.248 20.2725 26.392C20.1819 26.536 20.0699 26.664 19.9365 26.776C19.8085 26.888 19.6539 26.976 19.4725 27.04C19.2912 27.0987 19.0859 27.128 18.8565 27.128C18.5099 27.128 18.1979 27.048 17.9205 26.888C17.6485 26.728 17.4325 26.504 17.2725 26.216C17.1125 25.9227 17.0325 25.584 17.0325 25.2C17.0325 24.8107 17.1125 24.4747 17.2725 24.192C17.4379 23.9093 17.6592 23.6933 17.9365 23.544C18.2139 23.3893 18.5205 23.312 18.8565 23.312C19.2139 23.312 19.5152 23.3893 19.7605 23.544C20.0112 23.6933 20.2059 23.8907 20.3445 24.136L21.3205 23.568C21.1499 23.3067 20.9445 23.0827 20.7045 22.896C20.4699 22.704 20.1979 22.5547 19.8885 22.448C19.5845 22.3413 19.2405 22.288 18.8565 22.288C18.4245 22.288 18.0245 22.3573 17.6565 22.496C17.2885 22.6347 16.9685 22.832 16.6965 23.088C16.4245 23.344 16.2112 23.6533 16.0565 24.016C15.9072 24.3733 15.8325 24.768 15.8325 25.2C15.8325 25.632 15.9045 26.0293 16.0485 26.392C16.1979 26.7547 16.4059 27.0667 16.6725 27.328C16.9445 27.5893 17.2619 27.792 17.6245 27.936C17.9925 28.08 18.3925 28.152 18.8245 28.152C19.2832 28.152 19.6912 28.0693 20.0485 27.904C20.4059 27.7387 20.7045 27.512 20.9445 27.224C21.1899 26.9307 21.3685 26.5947 21.4805 26.216C21.5979 25.8373 21.6485 25.4347 21.6325 25.008H18.8725Z" fill="#374146"/>
</svg>
