<svg width="24" height="24" viewBox="0 0 24 24" fill="none" xmlns="http://www.w3.org/2000/svg">
<path d="M16.9775 4.96087C15.7558 3.67971 13.7748 3.67971 12.5531 4.96087L9.2347 8.44047C8.01291 9.72162 8.01291 11.7988 9.2347 13.0799L9.78776 13.6599C10.0932 13.9802 10.5884 13.9802 10.8939 13.6599C11.1993 13.3396 11.1993 12.8202 10.8938 12.4999L10.6174 12.21C9.85373 11.4093 9.85373 10.1111 10.6174 9.31037L13.3827 6.4107C14.1463 5.60998 15.3843 5.60998 16.148 6.4107L16.701 6.99063C17.4646 7.79135 17.4646 9.08958 16.701 9.8903L15.8714 10.7602C15.566 11.0805 15.566 11.5998 15.8714 11.9201C16.1769 12.2404 16.6721 12.2404 16.9775 11.9201L18.0837 10.7602C19.3054 9.47905 19.3054 7.40189 18.0837 6.12073L16.9775 4.96087Z" fill="#374146"/>
<path d="M7.02246 20.0391C8.24425 21.3203 10.2252 21.3203 11.4469 20.0391L14.7653 16.5595C15.9871 15.2784 15.9871 13.2012 14.7653 11.9201L14.2122 11.3401C13.9068 11.0198 13.4116 11.0198 13.1061 11.3401C12.8007 11.6604 12.8007 12.1798 13.1062 12.5001L13.3827 12.79C14.1463 13.5907 14.1463 14.8889 13.3827 15.6896L10.6174 18.5893C9.85373 19.39 8.61567 19.39 7.85205 18.5893L7.29899 18.0094C6.53537 17.2086 6.53537 15.9104 7.29899 15.1097L8.12858 14.2398C8.43403 13.9195 8.43403 13.4002 8.12858 13.0799C7.82313 12.7596 7.32791 12.7596 7.02246 13.0799L5.91634 14.2398C4.69455 15.521 4.69455 17.5981 5.91634 18.8793L7.02246 20.0391Z" fill="#374146"/>
</svg>
