<svg width="30" height="32" viewBox="0 0 30 32" fill="none" xmlns="http://www.w3.org/2000/svg">
<path d="M9.19966 23.368V25H9.86366C10.1677 25 10.4077 24.9307 10.5837 24.792C10.7597 24.6533 10.8477 24.4507 10.8477 24.184C10.8477 23.912 10.7597 23.7093 10.5837 23.576C10.4077 23.4373 10.1677 23.368 9.86366 23.368H9.19966Z" fill="#374146"/>
<path d="M14.1627 23.44V26.96H14.8587C15.1041 26.96 15.3361 26.928 15.5547 26.864C15.7734 26.7947 15.9654 26.688 16.1307 26.544C16.2961 26.4 16.4241 26.2187 16.5147 26C16.6107 25.776 16.6587 25.5093 16.6587 25.2C16.6587 24.8907 16.6107 24.6267 16.5147 24.408C16.4241 24.184 16.2961 24 16.1307 23.856C15.9654 23.712 15.7734 23.608 15.5547 23.544C15.3361 23.4747 15.1041 23.44 14.8587 23.44H14.1627Z" fill="#374146"/>
<path fill-rule="evenodd" clip-rule="evenodd" d="M22 0L30 8V31C30 31.5523 29.5523 32 29 32H1C0.447716 32 0 31.5523 0 31V1.23077C0 0.551035 0.559644 0 1.25 0H22ZM20 2H2V18H28V10H21.4286C20.6396 10 20 9.36044 20 8.57143V2ZM8.05566 22.4V28H9.19966V25.968H9.86366C10.3063 25.968 10.6823 25.896 10.9917 25.752C11.3063 25.608 11.5463 25.4027 11.7117 25.136C11.877 24.864 11.9597 24.5467 11.9597 24.184C11.9597 23.816 11.877 23.4987 11.7117 23.232C11.5463 22.9653 11.3063 22.76 10.9917 22.616C10.6823 22.472 10.3063 22.4 9.86366 22.4H8.05566ZM12.9947 22.4V28H14.8987C15.4854 28 15.9974 27.8853 16.4347 27.656C16.8774 27.4267 17.2214 27.104 17.4667 26.688C17.7121 26.2667 17.8347 25.7707 17.8347 25.2C17.8347 24.6293 17.7121 24.136 17.4667 23.72C17.2214 23.2987 16.8774 22.9733 16.4347 22.744C15.9974 22.5147 15.4854 22.4 14.8987 22.4H12.9947ZM19.9753 23.4V24.656H22.0313V25.608H19.9753V28H18.8713V22.4H22.1113V23.4H19.9753Z" fill="#374146"/>
</svg>
