<svg width="30" height="32" viewBox="0 0 30 32" fill="none" xmlns="http://www.w3.org/2000/svg">
<path d="M7.84809 23.368V25H8.51209C8.81609 25 9.05609 24.9307 9.23209 24.792C9.40809 24.6533 9.49609 24.4507 9.49609 24.184C9.49609 23.912 9.40809 23.7093 9.23209 23.576C9.05609 23.4373 8.81609 23.368 8.51209 23.368H7.84809Z" fill="#374146"/>
<path fill-rule="evenodd" clip-rule="evenodd" d="M22 0L30 8V31C30 31.5523 29.5523 32 29 32H1C0.447716 32 0 31.5523 0 31V1.23077C0 0.551035 0.559644 0 1.25 0H22ZM20 2H2V18H28V10H21.4286C20.6396 10 20 9.36044 20 8.57143V2ZM6.70409 22.4V28H7.84809V25.968H8.51209C8.95476 25.968 9.33076 25.896 9.64009 25.752C9.95476 25.608 10.1948 25.4027 10.3601 25.136C10.5254 24.864 10.6081 24.5467 10.6081 24.184C10.6081 23.816 10.5254 23.4987 10.3601 23.232C10.1948 22.9653 9.95476 22.76 9.64009 22.616C9.33076 22.472 8.95476 22.4 8.51209 22.4H6.70409ZM16.7312 22.4H15.6272V25.872L11.6432 22.12V28H12.7472V24.528L16.7312 28.28V22.4ZM20.8178 25.008V25.92H22.4258C22.3778 26.0907 22.3085 26.248 22.2178 26.392C22.1272 26.536 22.0152 26.664 21.8818 26.776C21.7538 26.888 21.5992 26.976 21.4178 27.04C21.2365 27.0987 21.0312 27.128 20.8018 27.128C20.4552 27.128 20.1432 27.048 19.8658 26.888C19.5938 26.728 19.3778 26.504 19.2178 26.216C19.0578 25.9227 18.9778 25.584 18.9778 25.2C18.9778 24.8107 19.0578 24.4747 19.2178 24.192C19.3832 23.9093 19.6045 23.6933 19.8818 23.544C20.1592 23.3893 20.4658 23.312 20.8018 23.312C21.1592 23.312 21.4605 23.3893 21.7058 23.544C21.9565 23.6933 22.1512 23.8907 22.2898 24.136L23.2658 23.568C23.0952 23.3067 22.8898 23.0827 22.6498 22.896C22.4152 22.704 22.1432 22.5547 21.8338 22.448C21.5298 22.3413 21.1858 22.288 20.8018 22.288C20.3698 22.288 19.9698 22.3573 19.6018 22.496C19.2338 22.6347 18.9138 22.832 18.6418 23.088C18.3698 23.344 18.1565 23.6533 18.0018 24.016C17.8525 24.3733 17.7778 24.768 17.7778 25.2C17.7778 25.632 17.8498 26.0293 17.9938 26.392C18.1432 26.7547 18.3512 27.0667 18.6178 27.328C18.8898 27.5893 19.2072 27.792 19.5698 27.936C19.9378 28.08 20.3378 28.152 20.7698 28.152C21.2285 28.152 21.6365 28.0693 21.9938 27.904C22.3512 27.7387 22.6498 27.512 22.8898 27.224C23.1352 26.9307 23.3138 26.5947 23.4258 26.216C23.5432 25.8373 23.5938 25.4347 23.5778 25.008H20.8178Z" fill="#374146"/>
</svg>
