<svg width="30" height="32" viewBox="0 0 30 32" fill="none" xmlns="http://www.w3.org/2000/svg">
<path d="M9.80903 23.368V25H10.473C10.777 25 11.017 24.9307 11.193 24.792C11.369 24.6533 11.457 24.4507 11.457 24.184C11.457 23.912 11.369 23.7093 11.193 23.576C11.017 23.4373 10.777 23.368 10.473 23.368H9.80903Z" fill="#374146"/>
<path d="M14.7481 23.368V25H15.4121C15.7161 25 15.9561 24.9307 16.1321 24.792C16.3081 24.6533 16.3961 24.4507 16.3961 24.184C16.3961 23.912 16.3081 23.7093 16.1321 23.576C15.9561 23.4373 15.7161 23.368 15.4121 23.368H14.7481Z" fill="#374146"/>
<path fill-rule="evenodd" clip-rule="evenodd" d="M22 0L30 8V31C30 31.5523 29.5523 32 29 32H1C0.447716 32 0 31.5523 0 31V1.23077C0 0.551035 0.559644 0 1.25 0H22ZM20 2H2V18H28V10H21.4286C20.6396 10 20 9.36044 20 8.57143V2ZM8.66503 22.4V28H9.80903V25.968H10.473C10.9157 25.968 11.2917 25.896 11.601 25.752C11.9157 25.608 12.1557 25.4027 12.321 25.136C12.4864 24.864 12.569 24.5467 12.569 24.184C12.569 23.816 12.4864 23.4987 12.321 23.232C12.1557 22.9653 11.9157 22.76 11.601 22.616C11.2917 22.472 10.9157 22.4 10.473 22.4H8.66503ZM13.6041 22.4V28H14.7481V25.968H15.4121C15.8548 25.968 16.2308 25.896 16.5401 25.752C16.8548 25.608 17.0948 25.4027 17.2601 25.136C17.4254 24.864 17.5081 24.5467 17.5081 24.184C17.5081 23.816 17.4254 23.4987 17.2601 23.232C17.0948 22.9653 16.8548 22.76 16.5401 22.616C16.2308 22.472 15.8548 22.4 15.4121 22.4H13.6041ZM17.741 22.4V23.432H19.245V28H20.389V23.432H21.901V22.4H17.741Z" fill="#374146"/>
</svg>
