<svg width="30" height="32" viewBox="0 0 30 32" fill="none" xmlns="http://www.w3.org/2000/svg">
<path d="M7.03463 23.3664V24.9984H7.69863C8.00263 24.9984 8.24263 24.9291 8.41862 24.7904C8.59463 24.6518 8.68262 24.4491 8.68262 24.1824C8.68262 23.9104 8.59463 23.7078 8.41862 23.5744C8.24263 23.4358 8.00263 23.3664 7.69863 23.3664H7.03463Z" fill="#374146"/>
<path d="M11.9737 24.9984H12.6377C12.9417 24.9984 13.1817 24.9291 13.3577 24.7904C13.5337 24.6518 13.6217 24.4491 13.6217 24.1824C13.6217 23.9104 13.5337 23.7078 13.3577 23.5744C13.1817 23.4358 12.9417 23.3664 12.6377 23.3664H11.9737V24.9984Z" fill="#374146"/>
<path fill-rule="evenodd" clip-rule="evenodd" d="M22 0L30 8V31C30 31.5523 29.5523 32 29 32H1C0.447716 32 0 31.5523 0 31V1.23077C0 0.551035 0.559644 0 1.25 0H22ZM20 2H2V18H28V10H21.4286C20.6396 10 20 9.36044 20 8.57143V2ZM5.89062 22.3984V27.9984H7.03463V25.9664H7.69863C8.14129 25.9664 8.51729 25.8944 8.82662 25.7504C9.14129 25.6064 9.38129 25.4011 9.54663 25.1344C9.71196 24.8624 9.79463 24.5451 9.79463 24.1824C9.79463 23.8144 9.71196 23.4971 9.54663 23.2304C9.38129 22.9638 9.14129 22.7584 8.82662 22.6144C8.51729 22.4704 8.14129 22.3984 7.69863 22.3984H5.89062ZM10.8297 22.3984V27.9984H11.9737V25.9664H12.6377C13.0804 25.9664 13.4564 25.8944 13.7657 25.7504C14.0804 25.6064 14.3204 25.4011 14.4857 25.1344C14.651 24.8624 14.7337 24.5451 14.7337 24.1824C14.7337 23.8144 14.651 23.4971 14.4857 23.2304C14.3204 22.9638 14.0804 22.7584 13.7657 22.6144C13.4564 22.4704 13.0804 22.3984 12.6377 22.3984H10.8297ZM14.9666 23.4304V22.3984H19.1266V23.4304H17.6146V27.9984H16.4706V23.4304H14.9666ZM24.5527 22.3984H23.1528L22.1688 24.1584L21.2087 22.3984H19.8088L21.4967 25.1104L19.6087 27.9984H21.0088L22.1607 25.9904L23.2728 27.9984H24.6728L22.8328 25.1104L24.5527 22.3984Z" fill="#374146"/>
</svg>
