<svg width="30" height="32" viewBox="0 0 30 32" fill="none" xmlns="http://www.w3.org/2000/svg">
<path fill-rule="evenodd" clip-rule="evenodd" d="M22 0L30 8V31C30 31.5523 29.5523 32 29 32H1C0.447716 32 0 31.5523 0 31V1.23077C0 0.551035 0.559644 0 1.25 0H22ZM20 2H2V18H28V10H21.4286C20.6396 10 20 9.36044 20 8.57143V2ZM8.79931 23.3984V24.6544H10.8553V25.6064H8.79931V27.9984H7.69531V22.3984H10.9353V23.3984H8.79931ZM13.2944 22.3984H12.1344V27.9984H13.2944V22.3984ZM14.6516 22.3984H15.7956V26.9984H18.0276V27.9984H14.6516V22.3984ZM22.3928 27.0304H19.9368V25.5024H22.2328V24.5504H19.9368V23.3664H22.3928V22.3984H18.8328V27.9984H22.3928V27.0304Z" fill="#374146"/>
</svg>
