<svg width="30" height="32" viewBox="0 0 30 32" fill="none" xmlns="http://www.w3.org/2000/svg">
<path fill-rule="evenodd" clip-rule="evenodd" d="M22 0L30 8V31C30 31.5523 29.5523 32 29 32H1C0.447716 32 0 31.5523 0 31V1.23077C0 0.551035 0.559644 0 1.25 0H22ZM20 2H2V18H28V10H21.4286C20.6396 10 20 9.36044 20 8.57143V2ZM13.3459 22.4H11.9459L10.9619 24.16L10.0019 22.4H8.60191L10.2899 25.112L8.40191 28H9.80191L10.9539 25.992L12.0659 28H13.4659L11.6259 25.112L13.3459 22.4ZM15.4122 22.4H14.2682V28H17.6442V27H15.4122V22.4ZM19.3214 26.664C19.1827 26.5093 19.0547 26.328 18.9374 26.12L18.1214 26.696C18.2441 26.9573 18.4147 27.2 18.6334 27.424C18.8521 27.648 19.1081 27.8267 19.4014 27.96C19.7001 28.088 20.0201 28.152 20.3614 28.152C20.6174 28.152 20.8601 28.112 21.0894 28.032C21.3241 27.9573 21.5347 27.848 21.7214 27.704C21.9081 27.5547 22.0547 27.3733 22.1614 27.16C22.2681 26.9467 22.3214 26.704 22.3214 26.432C22.3214 26.192 22.2814 25.9813 22.2014 25.8C22.1267 25.6133 22.0201 25.4533 21.8814 25.32C21.7481 25.1813 21.5961 25.064 21.4254 24.968C21.2601 24.872 21.0867 24.792 20.9054 24.728C20.6227 24.632 20.3881 24.5387 20.2014 24.448C20.0147 24.352 19.8761 24.2533 19.7854 24.152C19.6947 24.0453 19.6494 23.9227 19.6494 23.784C19.6494 23.6453 19.7054 23.5253 19.8174 23.424C19.9294 23.3173 20.0974 23.264 20.3214 23.264C20.4921 23.264 20.6441 23.2987 20.7774 23.368C20.9107 23.432 21.0281 23.52 21.1294 23.632C21.2361 23.7387 21.3267 23.8587 21.4014 23.992L22.2974 23.496C22.2014 23.2987 22.0654 23.1093 21.8894 22.928C21.7187 22.7413 21.5027 22.5893 21.2414 22.472C20.9854 22.3493 20.6787 22.288 20.3214 22.288C19.9747 22.288 19.6601 22.352 19.3774 22.48C19.1001 22.6027 18.8787 22.7813 18.7134 23.016C18.5534 23.2453 18.4734 23.52 18.4734 23.84C18.4734 24.1067 18.5241 24.336 18.6254 24.528C18.7267 24.7147 18.8547 24.8747 19.0094 25.008C19.1641 25.136 19.3267 25.2427 19.4974 25.328C19.6734 25.408 19.8281 25.472 19.9614 25.52C20.2121 25.616 20.4227 25.7067 20.5934 25.792C20.7694 25.872 20.9001 25.9653 20.9854 26.072C21.0761 26.1787 21.1214 26.32 21.1214 26.496C21.1214 26.6987 21.0494 26.8587 20.9054 26.976C20.7614 27.0933 20.5747 27.152 20.3454 27.152C20.1481 27.152 19.9641 27.1093 19.7934 27.024C19.6227 26.9387 19.4654 26.8187 19.3214 26.664Z" fill="#374146"/>
</svg>
