<svg width="30" height="32" viewBox="0 0 30 32" fill="none" xmlns="http://www.w3.org/2000/svg">
<path fill-rule="evenodd" clip-rule="evenodd" d="M22 0L30 8V31C30 31.5523 29.5523 32 29 32H1C0.447716 32 0 31.5523 0 31V1.23077C0 0.551035 0.559644 0 1.25 0H22ZM20 2H2V18H28V10H21.4286C20.6396 10 20 9.36044 20 8.57143V2ZM15.7845 26.1211C15.9019 26.3291 16.0299 26.5104 16.1685 26.6651C16.3125 26.8197 16.4699 26.9397 16.6405 27.0251C16.8112 27.1104 16.9952 27.1531 17.1925 27.1531C17.4219 27.1531 17.6085 27.0944 17.7525 26.9771C17.8965 26.8597 17.9685 26.6997 17.9685 26.4971C17.9685 26.3211 17.9232 26.1797 17.8325 26.0731C17.7472 25.9664 17.6165 25.8731 17.4405 25.7931C17.2699 25.7077 17.0592 25.6171 16.8085 25.5211C16.6752 25.4731 16.5205 25.4091 16.3445 25.3291C16.1739 25.2437 16.0112 25.1371 15.8565 25.0091C15.7019 24.8757 15.5739 24.7157 15.4725 24.5291C15.3712 24.3371 15.3205 24.1077 15.3205 23.8411C15.3205 23.5211 15.4005 23.2464 15.5605 23.0171C15.7259 22.7824 15.9472 22.6037 16.2245 22.4811C16.5072 22.3531 16.8219 22.2891 17.1685 22.2891C17.5259 22.2891 17.8325 22.3504 18.0885 22.4731C18.3499 22.5904 18.5659 22.7424 18.7365 22.9291C18.9125 23.1104 19.0485 23.2997 19.1445 23.4971L18.2485 23.9931C18.1739 23.8597 18.0832 23.7397 17.9765 23.6331C17.8752 23.5211 17.7579 23.4331 17.6245 23.3691C17.4912 23.2997 17.3392 23.2651 17.1685 23.2651C16.9445 23.2651 16.7765 23.3184 16.6645 23.4251C16.5525 23.5264 16.4965 23.6464 16.4965 23.7851C16.4965 23.9237 16.5419 24.0464 16.6325 24.1531C16.7232 24.2544 16.8619 24.3531 17.0485 24.4491C17.2352 24.5397 17.4699 24.6331 17.7525 24.7291C17.9339 24.7931 18.1072 24.8731 18.2725 24.9691C18.4432 25.0651 18.5952 25.1824 18.7285 25.3211C18.8672 25.4544 18.9739 25.6144 19.0485 25.8011C19.1285 25.9824 19.1685 26.1931 19.1685 26.4331C19.1685 26.7051 19.1152 26.9477 19.0085 27.1611C18.9019 27.3744 18.7552 27.5557 18.5685 27.7051C18.3819 27.8491 18.1712 27.9584 17.9365 28.0331C17.7072 28.1131 17.4645 28.1531 17.2085 28.1531C16.8672 28.1531 16.5472 28.0891 16.2485 27.9611C15.9552 27.8277 15.6992 27.6491 15.4805 27.4251C15.2619 27.2011 15.0912 26.9584 14.9685 26.6971L15.7845 26.1211ZM10.193 22.4011H8.79302L7.80902 24.1611L6.84902 22.4011H5.44902L7.13702 25.1131L5.24902 28.0011H6.64902L7.80102 25.9931L8.91302 28.0011H10.313L8.47302 25.1131L10.193 22.4011ZM12.2593 22.4011H11.1153V28.0011H14.4913V27.0011H12.2593V22.4011ZM24.6352 22.4011H23.2352L22.2512 24.1611L21.2912 22.4011H19.8912L21.5792 25.1131L19.6912 28.0011H21.0912L22.2432 25.9931L23.3552 28.0011H24.7552L22.9152 25.1131L24.6352 22.4011Z" fill="#374146"/>
</svg>
